<?xml version="1.0" standalone="no"?>
<!DOCTYPE svg PUBLIC "-//W3C//DTD SVG 20010904//EN"
 "http://www.w3.org/TR/2001/REC-SVG-20010904/DTD/svg10.dtd">
<svg version="1.0" xmlns="http://www.w3.org/2000/svg"
 width="225.000000pt" height="225.000000pt" viewBox="0 0 225.000000 225.000000"
 preserveAspectRatio="xMidYMid meet">

<g transform="translate(0.000000,225.000000) scale(0.100000,-0.100000)"
fill="#D1FAFF" stroke="none">
<path d="M167 1957 c-50 -16 -100 -58 -120 -100 -26 -54 -22 -141 8 -193 75
-128 266 -127 341 2 23 39 26 53 22 114 -3 59 -8 74 -34 106 -53 66 -142 95
-217 71z m113 -92 c56 -29 75 -101 43 -156 -17 -29 -67 -59 -98 -59 -31 0 -81
30 -98 59 -59 99 50 209 153 156z"/>
<path d="M520 1770 l0 -200 850 0 850 0 0 200 0 200 -850 0 -850 0 0 -200z
m1620 -5 l0 -115 -767 2 -768 3 -3 113 -3 112 771 0 770 0 0 -115z"/>
<path d="M150 1369 c-32 -13 -88 -66 -106 -101 -17 -32 -19 -125 -3 -165 25
-66 110 -123 184 -123 74 0 159 57 184 123 6 16 11 54 11 86 0 66 -20 104 -83
155 -32 25 -48 31 -100 33 -34 2 -73 -2 -87 -8z m107 -80 c66 -25 98 -90 73
-150 -19 -45 -56 -69 -105 -69 -129 0 -156 171 -35 219 33 13 34 13 67 0z"/>
<path d="M520 1180 l0 -200 650 0 650 0 0 200 0 200 -650 0 -650 0 0 -200z
m1218 3 l3 -113 -571 0 -570 0 0 108 c0 60 3 112 7 115 3 4 259 6 567 5 l561
-3 3 -112z"/>
<path d="M167 787 c-50 -16 -100 -58 -120 -100 -26 -54 -22 -141 8 -193 75
-128 266 -127 341 2 23 39 26 53 22 114 -3 59 -8 74 -34 106 -53 66 -142 95
-217 71z m113 -92 c56 -29 75 -101 43 -156 -17 -29 -67 -59 -98 -59 -31 0 -81
30 -98 59 -59 99 50 209 153 156z"/>
<path d="M520 600 l0 -200 445 0 445 0 0 200 0 200 -445 0 -445 0 0 -200z
m810 -5 l0 -115 -362 2 -363 3 -3 113 -3 112 366 0 365 0 0 -115z"/>
</g>
</svg>
